<svg width="233" height="142" fill="none" xmlns="http://www.w3.org/2000/svg"><rect width="233" height="142" rx="8" fill="#5A31F4"/><path d="M131.106 56.67c0 10.295-7.214 17.642-17.298 17.642h-9.497a.792.792 0 00-.564.234.798.798 0 00-.234.564v13.53a.8.8 0 01-.798.798h-6.649a.798.798 0 01-.797-.798V39.827a.798.798 0 01.797-.798h17.786c10.04-.011 17.254 7.336 17.254 17.641zm-8.289 0c0-5.917-4.034-10.239-9.508-10.239h-8.998a.796.796 0 00-.798.798v18.838a.796.796 0 00.798.798h8.998c5.474.034 9.508-4.288 9.508-10.195zM133.078 80.075a9.492 9.492 0 013.967-8.134c2.594-1.95 6.649-2.959 12.6-3.17l6.339-.221v-1.873c0-3.746-2.516-5.33-6.55-5.33-4.033 0-6.593 1.43-7.18 3.768a.774.774 0 01-.765.554h-6.261a.789.789 0 01-.798-.91c.931-5.54 5.541-9.75 15.293-9.75 10.372 0 14.117 4.83 14.117 14.05V88.64a.807.807 0 01-.809.798h-6.316a.792.792 0 01-.564-.233.798.798 0 01-.234-.565v-1.462a.597.597 0 00-1.031-.421c-1.894 2.06-4.953 3.546-9.851 3.546-7.203 0-11.957-3.746-11.957-10.228zm22.906-4.245v-1.518l-8.212.432c-4.322.222-6.837 2.017-6.837 5.042 0 2.737 2.305 4.256 6.339 4.256 5.474 0 8.71-2.96 8.71-8.212zM170.179 104.232v-5.674a.802.802 0 01.964-.787c.968.182 1.951.275 2.937.277a7.578 7.578 0 007.635-5.407l.41-1.308a.842.842 0 000-.543l-13.154-33.776a.8.8 0 01-.052-.387.805.805 0 01.806-.72h6.371a.81.81 0 01.754.52l8.932 23.825a.803.803 0 00.764.544.811.811 0 00.765-.544l7.757-23.759a.81.81 0 01.775-.554h6.594a.82.82 0 01.765 1.108l-14.074 37.51c-3.236 8.722-8.787 10.949-14.904 10.949a11.929 11.929 0 01-3.436-.41.814.814 0 01-.462-.321.814.814 0 01-.147-.543zM52.55 36.214a32.757 32.757 0 00-22.584 8.81 1.43 1.43 0 00-.177 1.917l3.79 5.175a1.453 1.453 0 002.216.177 23.427 23.427 0 0116.788-6.86c12.999 0 19.791 9.786 19.791 19.449 0 10.505-7.136 17.896-17.386 18.04-7.923 0-13.896-5.252-13.896-12.19a11.845 11.845 0 014.377-9.141 1.43 1.43 0 00.2-1.995l-3.99-5.031a1.451 1.451 0 00-2.072-.21 21.055 21.055 0 00-7.846 16.378c0 11.945 10.15 21.31 23.15 21.387h.176c15.437-.2 26.596-11.636 26.596-27.26 0-13.874-10.217-28.646-29.133-28.646z" fill="#fff"/></svg>